<svg width="900" height="1200" viewBox="0 0 900 1200" fill="none" xmlns="http://www.w3.org/2000/svg">
  <rect width="900" height="1200" fill="#0B0B12"/>
  <rect width="900" height="1200" fill="url(#bg)"/>
  <circle cx="482" cy="313" r="285" fill="url(#sun)" opacity="0.9"/>
  <path d="M0 720C112 654 214 622 306 624C432 626 498 694 598 678C692 662 790 586 900 544V1200H0V720Z" fill="url(#mountainBack)" opacity="0.9"/>
  <path d="M0 810C112 752 202 726 294 734C402 744 512 822 620 804C730 786 814 726 900 672V1200H0V810Z" fill="url(#mountainFront)"/>
  <rect x="582" y="270" width="10" height="340" rx="5" fill="#2D2117"/>
  <path d="M587 286C636 310 692 358 744 438" stroke="#3A2A1B" stroke-width="8" stroke-linecap="round"/>
  <path d="M586 334C550 360 514 404 488 448" stroke="#3A2A1B" stroke-width="6" stroke-linecap="round"/>
  <rect x="610" y="610" width="180" height="24" rx="12" fill="#A46A3A"/>
  <rect x="606" y="628" width="188" height="110" rx="18" fill="#8E5630"/>
  <path d="M580 732C580 647 630 580 710 580C774 580 828 638 828 714V902H580V732Z" fill="#11131A"/>
  <circle cx="704" cy="612" r="56" fill="#0D0F14"/>
  <path d="M662 752C688 770 726 774 754 758L792 900H620L662 752Z" fill="#E7EAF4"/>
  <path d="M0 918C150 876 302 864 434 900C570 938 734 1018 900 1038V1200H0V918Z" fill="#161822"/>
  <g opacity="0.95">
    <circle cx="712" cy="98" r="26" fill="white"/>
    <circle cx="668" cy="112" r="20" fill="white"/>
    <circle cx="752" cy="116" r="16" fill="white"/>
  </g>
  <defs>
    <linearGradient id="bg" x1="450" y1="0" x2="450" y2="1200" gradientUnits="userSpaceOnUse">
      <stop stop-color="#77A7DD"/>
      <stop offset="0.34" stop-color="#D1E0F0"/>
      <stop offset="0.6" stop-color="#5A7DA6"/>
      <stop offset="1" stop-color="#12131B"/>
    </linearGradient>
    <radialGradient id="sun" cx="0" cy="0" r="1" gradientUnits="userSpaceOnUse" gradientTransform="translate(482 313) rotate(90) scale(285)">
      <stop stop-color="#FFF7E6"/>
      <stop offset="0.5" stop-color="#F0C98E"/>
      <stop offset="1" stop-color="#F0C98E" stop-opacity="0"/>
    </radialGradient>
    <linearGradient id="mountainBack" x1="450" y1="544" x2="450" y2="1200" gradientUnits="userSpaceOnUse">
      <stop stop-color="#48556C"/>
      <stop offset="1" stop-color="#1B202B"/>
    </linearGradient>
    <linearGradient id="mountainFront" x1="450" y1="672" x2="450" y2="1200" gradientUnits="userSpaceOnUse">
      <stop stop-color="#2C3443"/>
      <stop offset="1" stop-color="#0F1219"/>
    </linearGradient>
  </defs>
</svg>
